<svg xmlns="http://www.w3.org/2000/svg" width="24" height="24" viewBox="0 0 24 24"><defs><style>.a{opacity:0;}.b{fill:#0e76a8;}.c{fill:#fff;}</style></defs><g transform="translate(-110 -10)"><g transform="translate(-33 1)"><rect class="a" width="24" height="24" transform="translate(143 9)"/><path class="b" d="M12,0A12,12,0,1,1,0,12,12,12,0,0,1,12,0Z" transform="translate(143 9)"/><path class="c" d="M81.946,84.294H84.4V76.108H81.946Zm9.569-8.47a3.687,3.687,0,0,0-3.015,1.4v-1.14H86.035V84.3H88.5V79.852A1.95,1.95,0,0,1,90.437,78c1.077,0,1.343.916,1.343,1.831v4.464h2.456V79.647C94.236,76.419,92.708,75.824,91.515,75.824Zm-8.352-.535a1.23,1.23,0,1,0-1.23-1.23,1.23,1.23,0,0,0,1.23,1.23Z" transform="translate(67.263 -58.263)"/></g></g></svg>