<svg xmlns="http://www.w3.org/2000/svg" width="48" height="48" viewBox="0 0 48 48">
    <defs>
        <style>
            .a {
                fill: #4d9754;
            }

            .b {
                fill: #fff;
            }
        </style>
    </defs>
    <g transform="translate(12715 1239)">
        <circle class="a" cx="24" cy="24" r="24" transform="translate(-12715 -1239)" />
        <path class="b"
            d="M17.309,8.686a2.969,2.969,0,1,1-2.969,2.969,2.968,2.968,0,0,1,2.969-2.969m0,12.723c4.2,0,8.623,2.064,8.623,2.969v1.555H8.686V24.378c0-.9,4.425-2.969,8.623-2.969M17.309,6a5.655,5.655,0,1,0,5.655,5.655A5.653,5.653,0,0,0,17.309,6Zm0,12.723C13.535,18.723,6,20.617,6,24.378v4.241H28.619V24.378C28.619,20.617,21.084,18.723,17.309,18.723Z"
            transform="translate(-12708.418 -1233.418)" />
    </g>
</svg>