<svg xmlns="http://www.w3.org/2000/svg" width="60" height="60" viewBox="0 0 60 60">
    <defs>
        <style>
            .a {
                fill: #128b38;
            }

            .b {
                fill: #fcfcfd;
            }
        </style>
    </defs>
    <g transform="translate(-1222 -215)">
        <circle class="a" cx="30" cy="30" r="30" transform="translate(1222 215)" />
        <path class="b"
            d="M9.388,15.019a20.456,20.456,0,0,0,8.9,8.9l2.971-2.971a1.343,1.343,0,0,1,1.377-.324,15.4,15.4,0,0,0,4.821.77,1.354,1.354,0,0,1,1.35,1.35v4.713a1.354,1.354,0,0,1-1.35,1.35A22.954,22.954,0,0,1,4.5,5.85,1.354,1.354,0,0,1,5.85,4.5h4.726a1.354,1.354,0,0,1,1.35,1.35,15.341,15.341,0,0,0,.77,4.821,1.355,1.355,0,0,1-.338,1.377L9.388,15.019Z"
            transform="translate(1235.847 228.847)" />
    </g>
</svg>