<svg xmlns="http://www.w3.org/2000/svg" width="40.957" height="65.299" viewBox="0 0 40.957 65.299"><defs><style>.a{fill:#4d9754;}</style></defs><path class="a" d="M6.36,39.539l.907,8.054,5.877-5.587L23.193,14.435a14.2,14.2,0,0,1-6.421-3.555Z" transform="translate(-6.36 17.707)"/><path class="a" d="M19.421,10.88A14.394,14.394,0,0,1,13,14.435L23.049,42.006l5.877,5.587.943-8.054Z" transform="translate(11.088 17.707)"/><path class="a" d="M30.766,21.139a10.921,10.921,0,0,0-7.255-10.23V3H16.255v7.908a10.871,10.871,0,1,0,14.511,10.23ZM19.883,24.766a3.628,3.628,0,1,1,3.628-3.628A3.638,3.638,0,0,1,19.883,24.766Z" transform="translate(0.577 -3)"/></svg>