<svg xmlns="http://www.w3.org/2000/svg" width="60" height="60" viewBox="0 0 60 60"><defs><style>.a{fill:#128b38;}.b{fill:none;}.c{fill:#fff;}</style></defs><g transform="translate(-1427 -215)"><circle class="a" cx="30" cy="30" r="30" transform="translate(1427 215)"/><g transform="translate(1442 230)"><path class="b" d="M0,0H30V30H0Z"/><path class="c" d="M26.987,9.75a2.478,2.478,0,0,0-1.175-2.125L14.5,1,3.187,7.625A2.489,2.489,0,0,0,2,9.75v12.5a2.507,2.507,0,0,0,2.5,2.5h20a2.507,2.507,0,0,0,2.5-2.5ZM14.5,16,4.175,9.55,14.5,3.5,24.825,9.55Z" transform="translate(0.5 1.25)"/></g></g></svg>