<svg xmlns="http://www.w3.org/2000/svg" width="24" height="24" viewBox="0 0 24 24"><defs><style>.a{opacity:0;}.b{fill:#3b5998;}.c{fill:#fff;}</style></defs><g transform="translate(-14 -10)"><g transform="translate(-95 1)"><rect class="a" width="24" height="24" transform="translate(109 9)"/><path class="b" d="M12,0A12,12,0,1,1,0,12,12,12,0,0,1,12,0Z" transform="translate(109 9)"/><path class="c" d="M114.022,74.81h1.69V72.547h-1.987v.008c-2.408.077-2.9,1.3-2.945,2.591h0v1.13h-1.64V78.49h1.64v5.94h2.471V78.492h2.024l.391-2.214h-2.414V75.6a.7.7,0,0,1,.2-.543.83.83,0,0,1,.565-.243Z" transform="translate(8.574 -57.512)"/></g></g></svg>