<svg xmlns="http://www.w3.org/2000/svg" width="23.713" height="22.078" viewBox="0 0 23.713 22.078">
  <g id="Group_1255" data-name="Group 1255" transform="translate(-99.219 -212.159)">
    <path id="Subtraction_9" data-name="Subtraction 9" d="M11.1,21.076a13.885,13.885,0,0,1-3.873-.5A14.641,14.641,0,0,1,4.7,19.563a10.318,10.318,0,0,1-1.09-.659,8.673,8.673,0,0,1-.966-.778,7.781,7.781,0,0,1-1.526-1.969,8.639,8.639,0,0,1-.545-1.218A10.338,10.338,0,0,1,.19,13.546a9.609,9.609,0,0,1-.17-1.235,5.833,5.833,0,0,1,.04-1.338,6.686,6.686,0,0,0,.055-1.2A5.032,5.032,0,0,1,.19,8.564c.138-.59.324-1.236.524-1.821A9.833,9.833,0,0,1,1.427,5.08c.1,0,.281-.225.556-.563a13.711,13.711,0,0,1,1.889-1.97,10.383,10.383,0,0,1,1.54-1.068A10.108,10.108,0,0,1,7.419.619L10.152.114,13.183,0a16.015,16.015,0,0,1,2.679.73A13.4,13.4,0,0,1,18.23,1.877,11.1,11.1,0,0,1,20.208,3.42a9.543,9.543,0,0,1,1.507,1.92,7.4,7.4,0,0,1,.966,3.187,11.565,11.565,0,0,1-.314,3.619,19.2,19.2,0,0,1-.634,2.163A10.851,10.851,0,0,1,20.9,16.1a8.438,8.438,0,0,1-1.116,1.5A9.621,9.621,0,0,1,18.3,18.887a11.428,11.428,0,0,1-1.734,1.006,14.282,14.282,0,0,1-1.978.753,9.81,9.81,0,0,1-1.636.325A15.607,15.607,0,0,1,11.1,21.076ZM11.424,1.6l-.782.065-1.889.391A9.319,9.319,0,0,0,2.5,7.555c-1.985,4.971,1.237,9.431,5.275,11.1a9.933,9.933,0,0,0,3.625.869,4.326,4.326,0,0,0,.706-.055c4.472-.743,7.073-2.46,8.434-5.568a8.007,8.007,0,0,0-.556-7.8A10.443,10.443,0,0,0,11.424,1.6ZM1.264,14.947h0a7.392,7.392,0,0,0,3.582,3.908,7.957,7.957,0,0,0-.961-.818A6.474,6.474,0,0,1,2.73,17c-.2-.246-.4-.557-.613-.886A7.943,7.943,0,0,0,1.264,14.947ZM10.024.716a7.122,7.122,0,0,1-1.373.365A6.845,6.845,0,0,0,7.419,1.4a12.984,12.984,0,0,0-3.5,2.184,7.87,7.87,0,0,0-2.4,3.222h.033V6.741l.847-1.3A12.775,12.775,0,0,1,5.953,2.247,9.4,9.4,0,0,1,7.366,1.57c.432-.169.924-.337,1.551-.528L10.252.716h-.228Zm.261-.033h0l.13.032Z" transform="translate(99.719 212.661)" fill="#fff" stroke="rgba(0,0,0,0)" stroke-miterlimit="10" stroke-width="1"/>
    <path id="Subtraction_10" data-name="Subtraction 10" d="M9.118,9.53a7.8,7.8,0,0,1-3.141-.672A9.045,9.045,0,0,1,3.747,7.446a10.288,10.288,0,0,1-.941-.911,10.385,10.385,0,0,1-.8-1L.93,3.68.7,3.908c-.043.019-.08.037-.116.055A.577.577,0,0,1,.3,4.048a.723.723,0,0,1-.118-.01l-.163-.2a.721.721,0,0,1,.026-.406,1.4,1.4,0,0,1,.231-.413,2.379,2.379,0,0,1,.68-.581,2.044,2.044,0,0,1,.4-.178A1.3,1.3,0,0,1,1.743,2.2a.869.869,0,0,1,.164.015l.13.163L2.1,2.54a.866.866,0,0,1-.127.25.815.815,0,0,1-.2.174l.2.2a5.348,5.348,0,0,0,2.64,2.392A10.033,10.033,0,0,0,8.941,6.61a6.544,6.544,0,0,0,1.888-.26,9.114,9.114,0,0,0,5.536-5.275,1.158,1.158,0,0,1-.288-.334A.709.709,0,0,1,16,.521a.73.73,0,0,1,.006-.261.7.7,0,0,1,.269-.212L16.365,0a1.449,1.449,0,0,1,.661.4,7.563,7.563,0,0,1,.6.652c.1.117.192.228.272.313V1.6a.714.714,0,0,1-.207.271.543.543,0,0,1-.148.083.5.5,0,0,1-.172.03.617.617,0,0,1-.254-.059,7.475,7.475,0,0,1-.23,1.492,7.89,7.89,0,0,1-.514,1.409,8.29,8.29,0,0,1-.766,1.29,8.506,8.506,0,0,1-.986,1.135,8.453,8.453,0,0,1-1.174.945,8.172,8.172,0,0,1-1.329.719,7.8,7.8,0,0,1-1.452.458A7.545,7.545,0,0,1,9.118,9.53ZM5.163,7.359l.033.065c.188.074.381.156.586.244a7.255,7.255,0,0,0,2.9.766,4.545,4.545,0,0,0,.938-.1l.224-.047h0a7.176,7.176,0,0,0,1.889-.571c.126-.064.686-.375.684-.39h0a3.3,3.3,0,0,1-.623.3,4.939,4.939,0,0,1-.724.2,8.482,8.482,0,0,1-1.643.145c-.37,0-.765-.018-1.172-.053-.372-.032-.757-.079-1.146-.14-.354-.055-.709-.121-1.055-.2C5.745,7.512,5.442,7.438,5.163,7.359Z" transform="translate(102.105 220.704)" fill="#fff" stroke="rgba(0,0,0,0)" stroke-miterlimit="10" stroke-width="1"/>
  </g>
</svg>