<svg xmlns="http://www.w3.org/2000/svg" width="24" height="23.998" viewBox="0 0 24 23.998"><defs><style>.a{opacity:0;}.b{fill:#fff;}.c{fill:#384553;}</style></defs><g transform="translate(-6.998 -9)"><rect class="a" width="23.998" height="23.998" transform="translate(7 9)"/><ellipse class="b" cx="8.999" cy="8.999" rx="8.999" ry="8.999" transform="translate(10 12)"/><path class="c" d="M12,0A12,12,0,1,0,24,12,12,12,0,0,0,12,0Zm6.029,9.863L15.094,12.8a1.685,1.685,0,0,1-2.383,0l-.115-.115-.313.313.114.114a1.687,1.687,0,0,1,0,2.383L9.463,18.427a1.685,1.685,0,0,1-2.384,0L5.971,17.319a1.687,1.687,0,0,1,0-2.383L8.906,12a1.685,1.685,0,0,1,2.383,0l.114.114.313-.313-.114-.114a1.687,1.687,0,0,1,0-2.383l2.934-2.934a1.685,1.685,0,0,1,2.383,0l1.108,1.108a1.687,1.687,0,0,1,0,2.387Z" transform="translate(6.998 9)"/><path class="c" d="M12,0A12,12,0,1,0,24,12,12,12,0,0,0,12,0Zm6.029,9.863L15.094,12.8a1.685,1.685,0,0,1-2.383,0l-.115-.115-.313.313.114.114a1.687,1.687,0,0,1,0,2.383L9.463,18.427a1.685,1.685,0,0,1-2.384,0L5.971,17.319a1.687,1.687,0,0,1,0-2.383L8.906,12a1.685,1.685,0,0,1,2.383,0l.114.114.313-.313-.114-.114a1.687,1.687,0,0,1,0-2.383l2.934-2.934a1.685,1.685,0,0,1,2.383,0l1.108,1.108a1.687,1.687,0,0,1,0,2.387Z" transform="translate(6.998 9)"/><path class="c" d="M89.106,160.636l-.616.616-.955-.955.616-.616-.124-.124a.478.478,0,0,0-.676,0l-3.184,3.184a.478.478,0,0,0,0,.676l1.2,1.2a.489.489,0,0,0,.676,0l3.184-3.184a.478.478,0,0,0,0-.676Z" transform="translate(-70.455 -137.944)"/><path class="c" d="M158.409,89.17a.478.478,0,0,0-.676,0l-3.184,3.184a.479.479,0,0,0,0,.676l.124.124.944-.945.955.955-.944.945.124.124a.489.489,0,0,0,.676,0l3.184-3.184a.479.479,0,0,0,0-.676Z" transform="translate(-135.329 -73.064)"/></g></svg>