<svg xmlns="http://www.w3.org/2000/svg" width="21" height="17.294" viewBox="0 0 21 17.294"><defs><style>.a{fill:#212121;}</style></defs><path class="a" d="M25.316,14.014,17.6,6.88a.4.4,0,0,0-.306-.13c-.241.011-.547.178-.547.432V10.76a.232.232,0,0,1-.2.222C8.88,12.144,5.649,17.819,4.506,23.71c-.044.232.273.449.421.265,2.8-3.486,6.206-5.761,11.591-5.8a.269.269,0,0,1,.23.259v3.513a.47.47,0,0,0,.793.286l7.77-7.258a.593.593,0,0,0,.191-.454A.719.719,0,0,0,25.316,14.014Z" transform="translate(-4.502 -6.749)"/></svg>