<svg xmlns="http://www.w3.org/2000/svg" width="155.222" height="45" viewBox="0 0 155.222 45"><defs><style>.a{stroke:#fff;}.b{fill:#fff;}</style></defs><g transform="translate(0.5 0.5)"><path class="a" d="M157.784,43.15a4.4,4.4,0,0,1-1.3,3.121,4.449,4.449,0,0,1-3.14,1.29H8.009A4.429,4.429,0,0,1,3.562,43.15V7.977A4.435,4.435,0,0,1,8.009,3.561H153.342a4.428,4.428,0,0,1,4.441,4.417Z" transform="translate(-3.562 -3.561)"/><path class="b" d="M71.325,40.386a6.621,6.621,0,0,1,3.206-5.561,6.931,6.931,0,0,0-5.43-2.89c-2.284-.237-4.5,1.346-5.663,1.346-1.187,0-2.978-1.323-4.909-1.284a7.245,7.245,0,0,0-6.085,3.654c-2.631,4.485-.669,11.076,1.852,14.7,1.261,1.777,2.735,3.758,4.663,3.688,1.887-.075,2.592-1.183,4.869-1.183,2.256,0,2.918,1.183,4.885,1.139,2.025-.031,3.3-1.784,4.517-3.575A14.557,14.557,0,0,0,75.3,46.278,6.428,6.428,0,0,1,71.325,40.386ZM67.61,29.55a6.458,6.458,0,0,0,1.517-4.675A6.783,6.783,0,0,0,64.763,27.1a6.149,6.149,0,0,0-1.556,4.5A5.608,5.608,0,0,0,67.61,29.55Z" transform="translate(-37.8 -17.788)"/><path class="b" d="M182.858,54.745h-2.637l-1.445-4.469h-5.021l-1.376,4.469h-2.567l4.976-15.215h3.072ZM178.341,48.4l-1.306-3.973q-.207-.609-.779-2.866h-.046q-.23.971-.734,2.866L174.191,48.4Zm17.288.723a6.154,6.154,0,0,1-1.544,4.423,4.562,4.562,0,0,1-3.435,1.445,3.455,3.455,0,0,1-3.182-1.556v5.757h-2.475V47.38q0-1.758-.092-3.606h2.177l.138,1.739h.046a4.445,4.445,0,0,1,7.049-.431,6,6,0,0,1,1.317,4.042Zm-2.522.089a4.469,4.469,0,0,0-.734-2.642,2.548,2.548,0,0,0-2.155-1.083,2.6,2.6,0,0,0-1.662.6,2.768,2.768,0,0,0-.974,1.57,3.142,3.142,0,0,0-.115.742v1.83a2.907,2.907,0,0,0,.746,2.021,2.493,2.493,0,0,0,1.937.824,2.551,2.551,0,0,0,2.177-1.061A4.619,4.619,0,0,0,193.106,49.214Zm15.338-.089a6.154,6.154,0,0,1-1.544,4.423,4.565,4.565,0,0,1-3.436,1.445,3.455,3.455,0,0,1-3.182-1.556v5.757h-2.475V47.38q0-1.758-.092-3.606h2.177l.138,1.739h.046a4.446,4.446,0,0,1,7.051-.431,6.01,6.01,0,0,1,1.317,4.042Zm-2.523.089a4.471,4.471,0,0,0-.735-2.642,2.545,2.545,0,0,0-2.153-1.083,2.611,2.611,0,0,0-1.664.6,2.764,2.764,0,0,0-.973,1.57,3.211,3.211,0,0,0-.116.742v1.83a2.917,2.917,0,0,0,.744,2.021,2.5,2.5,0,0,0,1.939.824,2.547,2.547,0,0,0,2.177-1.061A4.617,4.617,0,0,0,205.921,49.214Zm16.852,1.264a4.036,4.036,0,0,1-1.374,3.161,6.152,6.152,0,0,1-4.209,1.332,7.438,7.438,0,0,1-4-.948l.572-2.032a6.969,6.969,0,0,0,3.577.949,3.41,3.41,0,0,0,2.177-.621,2.015,2.015,0,0,0,.782-1.658,2.109,2.109,0,0,0-.643-1.558,5.986,5.986,0,0,0-2.132-1.173q-4.058-1.49-4.059-4.358a3.824,3.824,0,0,1,1.433-3.07,5.724,5.724,0,0,1,3.795-1.2,7.6,7.6,0,0,1,3.508.723l-.621,1.987a6.213,6.213,0,0,0-2.969-.7,3.052,3.052,0,0,0-2.048.632,1.8,1.8,0,0,0-.621,1.379,1.852,1.852,0,0,0,.712,1.49,8.059,8.059,0,0,0,2.246,1.173,7.626,7.626,0,0,1,2.934,1.85A3.819,3.819,0,0,1,222.773,50.477Zm8.206-4.874H228.25V50.93q0,2.032,1.445,2.03a4.414,4.414,0,0,0,1.1-.113l.068,1.851a5.69,5.69,0,0,1-1.925.27,2.992,2.992,0,0,1-2.294-.882,4.275,4.275,0,0,1-.826-2.957V45.6h-1.626V43.77h1.626V41.761l2.431-.723V43.77h2.729Zm12.288,3.566a5.963,5.963,0,0,1-1.468,4.153,5.272,5.272,0,0,1-4.08,1.67,5.025,5.025,0,0,1-3.91-1.6,5.781,5.781,0,0,1-1.456-4.04,5.914,5.914,0,0,1,1.5-4.175,5.245,5.245,0,0,1,4.048-1.626,5.132,5.132,0,0,1,3.942,1.6,5.707,5.707,0,0,1,1.422,4.015Zm-2.566.056a4.85,4.85,0,0,0-.663-2.588,2.456,2.456,0,0,0-2.225-1.307,2.492,2.492,0,0,0-2.27,1.307,4.933,4.933,0,0,0-.664,2.634,4.84,4.84,0,0,0,.664,2.59,2.558,2.558,0,0,0,4.474-.022A4.868,4.868,0,0,0,240.7,49.225Zm10.616-3.307a4.374,4.374,0,0,0-.781-.067,2.349,2.349,0,0,0-2.018.972,3.619,3.619,0,0,0-.618,2.167v5.757h-2.475V47.229q0-1.727-.072-3.454h2.156l.091,2.1h.069a3.766,3.766,0,0,1,1.238-1.739,3.024,3.024,0,0,1,1.789-.587,4.035,4.035,0,0,1,.619.045Zm11.072,2.823a5.633,5.633,0,0,1-.09,1.106h-7.427a3.159,3.159,0,0,0,1.078,2.485,3.722,3.722,0,0,0,2.429.766,8.332,8.332,0,0,0,3.005-.518l.388,1.691a9.417,9.417,0,0,1-3.736.678,5.141,5.141,0,0,1-5.549-5.529,6.22,6.22,0,0,1,1.377-4.129,4.774,4.774,0,0,1,3.9-1.76,4.174,4.174,0,0,1,3.647,1.76,5.854,5.854,0,0,1,.982,3.45Zm-2.361-.632a3.263,3.263,0,0,0-.481-1.874,2.171,2.171,0,0,0-1.972-1.017,2.359,2.359,0,0,0-1.971.993,3.611,3.611,0,0,0-.733,1.9ZM173.041,34.151a16.063,16.063,0,0,1-1.78-.089V26.706a13.684,13.684,0,0,1,2.1-.155c2.839,0,4.147,1.375,4.147,3.617C177.5,32.754,175.959,34.151,173.041,34.151Zm.415-6.657a5.017,5.017,0,0,0-.98.078v5.592a6.523,6.523,0,0,0,.822.033,2.669,2.669,0,0,0,2.919-3A2.459,2.459,0,0,0,173.457,27.494Zm8.121,6.714a2.584,2.584,0,0,1-2.637-2.774,2.644,2.644,0,0,1,2.728-2.851,2.564,2.564,0,0,1,2.637,2.763A2.66,2.66,0,0,1,181.578,34.207Zm.046-4.749c-.879,0-1.442.809-1.442,1.941,0,1.11.575,1.92,1.43,1.92s1.431-.866,1.431-1.942c0-1.1-.563-1.918-1.419-1.918Zm11.806-.765-1.713,5.392H190.6l-.709-2.341a17.551,17.551,0,0,1-.44-1.741h-.023a11.484,11.484,0,0,1-.439,1.741l-.755,2.341h-1.127L185.5,28.693h1.251l.62,2.563q.22.916.372,1.731h.023a17.5,17.5,0,0,1,.451-1.72l.778-2.573h.992l.744,2.519q.259.878.44,1.776h.032a15.336,15.336,0,0,1,.372-1.776l.665-2.519Zm6.3,5.392h-1.217v-3.1c0-.954-.371-1.432-1.1-1.432a1.252,1.252,0,0,0-1.217,1.321v3.207H194.98V30.234c0-.477-.012-.988-.045-1.542h1.071l.057.832h.034a1.974,1.974,0,0,1,1.736-.942c1.15,0,1.9.866,1.9,2.274Zm3.356,0h-1.218V26.219h1.218Zm4.437.122a2.585,2.585,0,0,1-2.637-2.774,2.644,2.644,0,0,1,2.727-2.851,2.563,2.563,0,0,1,2.637,2.763,2.659,2.659,0,0,1-2.726,2.862Zm.045-4.749c-.879,0-1.442.809-1.442,1.941,0,1.11.576,1.92,1.429,1.92s1.43-.866,1.43-1.942c0-1.1-.561-1.918-1.418-1.918Zm7.479,4.627-.088-.621h-.033a1.88,1.88,0,0,1-1.6.743,1.581,1.581,0,0,1-1.678-1.587c0-1.331,1.172-2.019,3.2-2.019v-.1c0-.71-.382-1.066-1.137-1.066a2.592,2.592,0,0,0-1.43.4l-.247-.788a3.544,3.544,0,0,1,1.88-.467,1.94,1.94,0,0,1,2.153,2.231V32.8a8.021,8.021,0,0,0,.079,1.287Zm-.167-2.686c-1.351,0-2.03.323-2.03,1.087a.77.77,0,0,0,.835.843,1.158,1.158,0,0,0,1.195-1.1Zm7.1,2.686-.057-.866h-.034a1.841,1.841,0,0,1-1.758.988,2.469,2.469,0,0,1-2.3-2.752c0-1.686,1.014-2.875,2.4-2.875a1.654,1.654,0,0,1,1.544.733h.024V26.219h1.218v6.412c0,.521.013,1.01.045,1.453Zm-.18-3.173a1.313,1.313,0,0,0-1.282-1.4c-.9,0-1.454.788-1.454,1.9,0,1.087.572,1.832,1.429,1.832a1.354,1.354,0,0,0,1.306-1.432Zm8.941,3.295a2.583,2.583,0,0,1-2.636-2.773,2.644,2.644,0,0,1,2.726-2.851,2.563,2.563,0,0,1,2.637,2.763,2.659,2.659,0,0,1-2.728,2.862Zm.045-4.749c-.878,0-1.441.81-1.441,1.941,0,1.11.575,1.92,1.43,1.92s1.43-.866,1.43-1.942c0-1.1-.561-1.918-1.419-1.918Zm9.227,4.627h-1.218v-3.1c0-.954-.371-1.432-1.1-1.432a1.252,1.252,0,0,0-1.216,1.321v3.207h-1.218V30.234c0-.477-.012-.988-.045-1.542h1.071l.057.832h.034a1.973,1.973,0,0,1,1.735-.943c1.149,0,1.905.865,1.905,2.274Zm8.188-4.493h-1.339V32.21c0,.667.234,1,.708,1a2.433,2.433,0,0,0,.54-.056l.034.91a2.733,2.733,0,0,1-.944.134c-.959,0-1.533-.521-1.533-1.886V29.592h-.8v-.9h.8v-.988l1.195-.356v1.342H248.2Zm6.442,4.493h-1.216V31.012c0-.965-.371-1.453-1.1-1.453a1.184,1.184,0,0,0-1.218,1.276v3.25h-1.216V26.219H251.1v3.239h.024a1.853,1.853,0,0,1,1.646-.877c1.159,0,1.867.887,1.867,2.3Zm6.6-2.408h-3.652a1.561,1.561,0,0,0,1.725,1.6,4.172,4.172,0,0,0,1.476-.255l.189.832a4.635,4.635,0,0,1-1.837.333,2.522,2.522,0,0,1-2.726-2.717,2.649,2.649,0,0,1,2.589-2.9,2.278,2.278,0,0,1,2.277,2.563A2.274,2.274,0,0,1,261.243,31.677Zm-1.116-.854c0-.832-.427-1.42-1.2-1.42a1.431,1.431,0,0,0-1.331,1.42Z" transform="translate(-122.002 -18.748)"/></g></svg>