<svg xmlns="http://www.w3.org/2000/svg" xmlns:xlink="http://www.w3.org/1999/xlink" width="156.705" height="45" viewBox="0 0 156.705 45"><defs><style>.a,.b{stroke:#fff;}.b,.c,.j{fill:#fff;}.b{stroke-miterlimit:10;stroke-width:0.2px;}.d{fill:url(#a);}.e{fill:url(#b);}.f{fill:url(#c);}.g{fill:url(#d);}.h{opacity:0.2;}.i{opacity:0.12;}.j{opacity:0.25;}</style><linearGradient id="a" x1="0.908" y1="1.032" x2="-0.383" y2="0.36" gradientUnits="objectBoundingBox"><stop offset="0" stop-color="#00a0ff"/><stop offset="0.007" stop-color="#00a1ff"/><stop offset="0.26" stop-color="#00beff"/><stop offset="0.512" stop-color="#00d2ff"/><stop offset="0.76" stop-color="#00dfff"/><stop offset="1" stop-color="#00e3ff"/></linearGradient><linearGradient id="b" x1="1.077" y1="0.729" x2="-1.307" y2="0.729" gradientUnits="objectBoundingBox"><stop offset="0" stop-color="#ffe000"/><stop offset="0.409" stop-color="#ffbd00"/><stop offset="0.775" stop-color="orange"/><stop offset="1" stop-color="#ff9c00"/></linearGradient><linearGradient id="c" x1="0.864" y1="-0.023" x2="-0.499" y2="-1.789" gradientUnits="objectBoundingBox"><stop offset="0" stop-color="#ff3a44"/><stop offset="1" stop-color="#c31162"/></linearGradient><linearGradient id="d" x1="-0.186" y1="2.701" x2="0.423" y2="1.909" gradientUnits="objectBoundingBox"><stop offset="0" stop-color="#32a071"/><stop offset="0.069" stop-color="#2da771"/><stop offset="0.476" stop-color="#15cf74"/><stop offset="0.801" stop-color="#06e775"/><stop offset="1" stop-color="#00f076"/></linearGradient></defs><g transform="translate(0.5 0.5)"><path class="a" d="M149.938,44H5.767A5.583,5.583,0,0,1,0,38.5V5.5A5.583,5.583,0,0,1,5.767,0H149.938a5.583,5.583,0,0,1,5.767,5.5v33A5.583,5.583,0,0,1,149.938,44Z"/><path class="b" d="M48.364,10.679a3.094,3.094,0,0,1-.812,2.29,3.679,3.679,0,0,1-5.107,0A3.344,3.344,0,0,1,41.4,10.45a3.344,3.344,0,0,1,1.045-2.519A3.436,3.436,0,0,1,45,6.9a3.124,3.124,0,0,1,1.393.344,2.522,2.522,0,0,1,1.045.8l-.58.573A2.177,2.177,0,0,0,45,7.816a2.324,2.324,0,0,0-1.857.8,2.344,2.344,0,0,0-.812,1.947,2.344,2.344,0,0,0,.812,1.947,3.008,3.008,0,0,0,1.857.8,2.563,2.563,0,0,0,1.973-.8,1.884,1.884,0,0,0,.58-1.374H45v-.916h3.366v.458ZM53.7,7.816H50.569V9.992h2.9v.8h-2.9v2.176H53.7v.916H49.64V7.015H53.7Zm3.83,6.069H56.6V7.816H54.631v-.8h4.875v.8H57.533Zm5.339,0V7.015H63.8v6.87Zm4.875,0h-.928V7.816H64.844v-.8H69.6v.8H67.63v6.069Zm11.026-.916a3.679,3.679,0,0,1-5.107,0,3.344,3.344,0,0,1-1.045-2.519,3.344,3.344,0,0,1,1.045-2.519,3.679,3.679,0,0,1,5.107,0,3.344,3.344,0,0,1,1.045,2.519A3.344,3.344,0,0,1,78.772,12.969Zm-4.41-.573a2.756,2.756,0,0,0,1.857.8,2.324,2.324,0,0,0,1.857-.8,2.744,2.744,0,0,0,.812-1.947A2.344,2.344,0,0,0,78.075,8.5a2.756,2.756,0,0,0-1.857-.8,2.324,2.324,0,0,0-1.857.8,2.744,2.744,0,0,0-.812,1.947A2.344,2.344,0,0,0,74.362,12.4Zm6.732,1.489V7.015h1.045L85.5,12.4V7.015h.928v6.87H85.5l-3.6-5.611v5.611h-.812Z" transform="translate(5.207 1.494)"/><path class="c" d="M72.437,22.482a4.851,4.851,0,0,0-4.991,4.924,4.921,4.921,0,0,0,4.991,4.924,4.851,4.851,0,0,0,4.991-4.924A4.784,4.784,0,0,0,72.437,22.482Zm0,7.786a2.984,2.984,0,0,1,0-5.954,2.79,2.79,0,0,1,2.785,2.977A2.859,2.859,0,0,1,72.437,30.268ZM61.643,22.482a4.851,4.851,0,0,0-4.991,4.924,4.921,4.921,0,0,0,4.991,4.924,4.851,4.851,0,0,0,4.991-4.924A4.784,4.784,0,0,0,61.643,22.482Zm0,7.786a2.984,2.984,0,0,1,0-5.954,2.79,2.79,0,0,1,2.785,2.977A2.859,2.859,0,0,1,61.643,30.268ZM48.76,23.97v2.061h4.991a4.3,4.3,0,0,1-1.161,2.634,5.172,5.172,0,0,1-3.83,1.489,5.366,5.366,0,0,1-5.455-5.5,5.437,5.437,0,0,1,5.455-5.5,5.8,5.8,0,0,1,3.83,1.489L54.1,19.161A7.49,7.49,0,0,0,48.876,17.1,7.779,7.779,0,0,0,41.1,24.657a7.779,7.779,0,0,0,7.776,7.557,6.724,6.724,0,0,0,5.339-2.176,6.839,6.839,0,0,0,1.857-4.809,4.238,4.238,0,0,0-.116-1.26h-7.2Zm52.692,1.6a4.5,4.5,0,0,0-4.178-3.092,4.64,4.64,0,0,0-4.642,4.924,4.823,4.823,0,0,0,4.875,4.924,4.773,4.773,0,0,0,4.062-2.176l-1.625-1.145a2.836,2.836,0,0,1-2.437,1.374,2.522,2.522,0,0,1-2.437-1.489l6.616-2.748-.232-.572Zm-6.732,1.6a2.8,2.8,0,0,1,2.553-2.863,2.058,2.058,0,0,1,1.857,1.031l-4.41,1.832Zm-5.455,4.695h2.205V17.558H89.266Zm-3.482-8.359a3.845,3.845,0,0,0-2.669-1.145,4.951,4.951,0,0,0-4.759,4.924A4.773,4.773,0,0,0,83.114,32.1a3.351,3.351,0,0,0,2.553-1.145h.116v.687a2.641,2.641,0,0,1-5.107,1.145l-1.857.8a4.787,4.787,0,0,0,4.41,2.863c2.553,0,4.642-1.488,4.642-5.038v-8.7H85.784ZM83.23,30.268a2.984,2.984,0,0,1,0-5.954A2.769,2.769,0,0,1,85.9,27.291,2.769,2.769,0,0,1,83.23,30.268Zm28.319-12.71h-5.223V31.871h2.205V26.489h3.018a4.475,4.475,0,1,0,0-8.931Zm.116,6.87h-3.134V19.5h3.134a2.533,2.533,0,0,1,2.553,2.4,2.638,2.638,0,0,1-2.553,2.519Zm13.347-2.061a3.91,3.91,0,0,0-3.83,2.176l1.973.8a2.058,2.058,0,0,1,1.973-1.031,2.174,2.174,0,0,1,2.321,1.832v.115a4.651,4.651,0,0,0-2.205-.573c-2.089,0-4.178,1.145-4.178,3.206a3.383,3.383,0,0,0,3.6,3.206,3.279,3.279,0,0,0,2.785-1.374h.116v1.145h2.089v-5.5a4.373,4.373,0,0,0-4.642-4.008Zm-.232,7.9c-.7,0-1.741-.344-1.741-1.26,0-1.145,1.277-1.489,2.321-1.489a4.538,4.538,0,0,1,1.973.458A2.69,2.69,0,0,1,124.781,30.268Zm12.186-7.557-2.437,6.183h-.116l-2.553-6.183h-2.321l3.83,8.7-2.205,4.809h2.205l5.919-13.511h-2.321Zm-19.5,9.16h2.205V17.558h-2.205Z" transform="translate(5.158 2.973)"/><path class="d" d="M10.464,7.5A2.218,2.218,0,0,0,10,9.1v25.3a2.247,2.247,0,0,0,.58,1.6l.116.115,14.392-14.2V21.7Z" transform="translate(0.163 1.581)"/><path class="e" d="M27.659,25.533,22.9,20.838v-.344L27.659,15.8l.116.115,5.687,3.206c1.625.916,1.625,2.4,0,3.321Z" transform="translate(2.235 2.784)"/><path class="f" d="M29.782,24.809,24.908,20,10.4,34.313c.58.572,1.393.572,2.437.114l16.945-9.618" transform="translate(0.227 3.393)"/><path class="g" d="M29.782,17.051l-16.945-9.5a1.9,1.9,0,0,0-2.437.114l14.508,14.2,4.875-4.809Z" transform="translate(0.227 1.533)"/><path class="h" d="M29.666,24.1,12.837,33.489a1.918,1.918,0,0,1-2.321,0L10.4,33.6l.116.114a1.918,1.918,0,0,0,2.321,0Z" transform="translate(0.227 3.988)"/><path class="i" d="M10.464,34.084a2.218,2.218,0,0,1-.464-1.6V32.6a2.247,2.247,0,0,0,.58,1.6v-.115h-.116Zm25.069-12.6-5.8,3.206.116.114L35.534,21.6A1.9,1.9,0,0,0,36.694,20C36.694,20.573,36.23,21.031,35.534,21.489Z" transform="translate(0.163 3.393)"/><path class="j" d="M12.9,7.666l22.632,12.71c.7.458,1.161.916,1.161,1.489a1.9,1.9,0,0,0-1.161-1.6L12.9,7.551c-1.625-.916-2.9-.229-2.9,1.6v.115C10,7.551,11.277,6.75,12.9,7.666Z" transform="translate(0.163 1.53)"/></g></svg>