<svg xmlns="http://www.w3.org/2000/svg" width="27.92" height="21.85" viewBox="0 0 27.92 21.85"><path d="M13.96,17.07A6.2,6.2,0,0,1,7.726,11.39L3.15,7.93a14.2,14.2,0,0,0-1.6,2.372,1.354,1.354,0,0,0,0,1.246A14.024,14.024,0,0,0,13.96,19.119a13.834,13.834,0,0,0,3.4-.446l-2.264-1.713A6.423,6.423,0,0,1,13.96,17.07ZM27.65,19.55,22.827,15.9a14.193,14.193,0,0,0,3.544-4.356,1.354,1.354,0,0,0,0-1.246A14.024,14.024,0,0,0,13.96,2.731,13.679,13.679,0,0,0,7.533,4.34L1.983.144A.708.708,0,0,0,1,.264L.147,1.342A.673.673,0,0,0,.27,2.3L25.936,21.706a.708.708,0,0,0,.98-.12l.857-1.078a.673.673,0,0,0-.123-.958Zm-8.015-6.06-1.714-1.3a3.965,3.965,0,0,0,.227-1.268,4.013,4.013,0,0,0-1.632-3.273,4.208,4.208,0,0,0-3.66-.662,2,2,0,0,1,.406,1.2,1.95,1.95,0,0,1-.067.427L9.983,6.193a6.347,6.347,0,0,1,8.419.386,6.075,6.075,0,0,1,1.839,4.346,5.892,5.892,0,0,1-.606,2.565Z" transform="translate(0 0)"/></svg>