<svg xmlns="http://www.w3.org/2000/svg" width="24" height="24" viewBox="0 0 24 24"><defs><style>.a{opacity:0;}.b{fill:#3f729b;}.c{fill:#fff;}</style></defs><g transform="translate(-46 -10)"><g transform="translate(5 1)"><rect class="a" width="24" height="24" transform="translate(41 9)"/><path class="b" d="M12,0A12,12,0,1,1,0,12,12,12,0,0,1,12,0Z" transform="translate(41 9)"/><path class="c" d="M73.813,63.708H66.129a2.423,2.423,0,0,0-2.421,2.421v7.685a2.423,2.423,0,0,0,2.421,2.421h7.685a2.423,2.423,0,0,0,2.421-2.421V66.129a2.424,2.424,0,0,0-2.421-2.421Zm.762,1.4h.274v2.079l-2.094.006-.007-2.079Zm-4.6,2.767a2.1,2.1,0,1,1-2.1,2.1,2.1,2.1,0,0,1,2.1-2.1Zm4.89,5.786a1.2,1.2,0,0,1-1.2,1.2h-7.4a1.2,1.2,0,0,1-1.2-1.2V68.574H66.8a3.992,3.992,0,0,0-.249,1.4,3.425,3.425,0,1,0,6.85,0,4.007,4.007,0,0,0-.252-1.4h1.715v5.088Z" transform="translate(-16.971 -48.971)"/></g></g></svg>