<svg xmlns="http://www.w3.org/2000/svg" width="24" height="24" viewBox="0 0 24 24"><defs><style>.a{opacity:0;}.b{fill:#26a6d1;}.c{fill:#fff;}</style></defs><g transform="translate(-75 -9)"><rect class="a" width="24" height="24" transform="translate(75 9)"/><path class="b" d="M12,0A12,12,0,1,1,0,12,12,12,0,0,1,12,0Z" transform="translate(75 9)"/><path class="c" d="M77.288,83.442a5.126,5.126,0,0,1-1.6.489,3.074,3.074,0,0,0,1.225-1.717,5.216,5.216,0,0,1-1.77.753,2.657,2.657,0,0,0-2.033-.979,2.953,2.953,0,0,0-2.789,3.1,3.435,3.435,0,0,0,.072.708,7.669,7.669,0,0,1-5.742-3.241,3.355,3.355,0,0,0-.377,1.559A3.205,3.205,0,0,0,65.516,86.7a2.557,2.557,0,0,1-1.263-.389v.039a3.038,3.038,0,0,0,2.237,3.039,2.534,2.534,0,0,1-.734.109,2.461,2.461,0,0,1-.523-.056,2.842,2.842,0,0,0,2.6,2.158,5.235,5.235,0,0,1-3.46,1.328,5.114,5.114,0,0,1-.665-.043,7.351,7.351,0,0,0,9.843-1.12A9.578,9.578,0,0,0,75.9,85.448l-.008-.4A6.045,6.045,0,0,0,77.288,83.442Z" transform="translate(16.902 -66.788)"/></g></svg>