<svg xmlns="http://www.w3.org/2000/svg" width="34.358" height="38.176" viewBox="0 0 34.358 38.176"><defs><style>.a{fill:#ebeced;}</style></defs><path class="a" d="M31.223,18.679H12.135V22.5H31.223ZM35.041,5.318H33.132V1.5H29.314V5.318H14.044V1.5H10.226V5.318H8.318a3.8,3.8,0,0,0-3.8,3.818L4.5,35.858a3.817,3.817,0,0,0,3.818,3.818H35.041a3.829,3.829,0,0,0,3.818-3.818V9.135A3.829,3.829,0,0,0,35.041,5.318Zm0,30.541H8.318v-21H35.041ZM25.5,26.314H12.135v3.818H25.5Z" transform="translate(-4.5 -1.5)"/></svg>