<svg xmlns="http://www.w3.org/2000/svg" width="24.155" height="16.961" viewBox="0 0 24.155 16.961"><defs><style>.a{fill:#2f343e;}</style></defs><path class="a" d="M24.072,60.922V52.492a7.716,7.716,0,0,1,2.189-5.632,10.661,10.661,0,0,1,5.929-2.9v3.6a7.5,7.5,0,0,0-1.831.783,3.531,3.531,0,0,0-1.114,1.066,3.761,3.761,0,0,0-.537,1.383,9.537,9.537,0,0,0-.139,1.7v.866H32.19v7.564Zm-16.037,0V52.492a7.716,7.716,0,0,1,2.189-5.632,10.661,10.661,0,0,1,5.929-2.9v3.6a7.5,7.5,0,0,0-1.831.783,3.531,3.531,0,0,0-1.114,1.066,3.761,3.761,0,0,0-.537,1.383,9.537,9.537,0,0,0-.139,1.7v.866h3.621v7.564Z" transform="translate(-8.035 -43.961)"/></svg>