<svg xmlns="http://www.w3.org/2000/svg" width="58" height="58" viewBox="0 0 58 58"><defs><style>.a{fill:none;}.b{fill:#4d9754;}</style></defs><g transform="translate(-0.218 -0.219)"><rect class="a" width="58" height="58" transform="translate(0.218 0.219)"/><g transform="translate(9.56 3.406)"><path class="b" d="M42.04,28.168C38.182,18.142,24.445,17.6,27.763,3.029A1.239,1.239,0,0,0,25.92,1.678C17,6.937,10.586,17.479,15.967,31.289a1.223,1.223,0,0,1-1.843,1.45C9.677,29.372,9.21,24.531,9.6,21.067a1.23,1.23,0,0,0-2.236-.836C5.7,22.787,4,26.915,4,33.132,4.934,46.893,16.557,51.12,20.735,51.661c5.971.762,12.434-.344,17.079-4.6A16.99,16.99,0,0,0,42.04,28.168Zm-22.8,12.361a7.592,7.592,0,0,0,5.849-5.677c.811-3.514-2.359-6.954-.221-12.508.811,4.6,8.036,7.47,8.036,12.483C33.1,41.045,26.362,46.377,19.236,40.529Z" transform="translate(-4 -1.496)"/></g></g></svg>