<svg xmlns="http://www.w3.org/2000/svg" width="57.944" height="57.944" viewBox="0 0 57.944 57.944"><defs><style>.a{fill:none;}.b{fill:#4d9754;}</style></defs><rect class="a" width="57.944" height="57.944"/><path class="b" d="M30.225,2H9.245A5.116,5.116,0,0,0,4.026,7L4,46.957a5.116,5.116,0,0,0,5.219,5h31.5a5.14,5.14,0,0,0,5.245-5V16.986Zm2.622,24.976H22.357v2.5h7.867a2.57,2.57,0,0,1,2.622,2.5v7.493a2.57,2.57,0,0,1-2.622,2.5H27.6v2.5H22.357v-2.5H17.112v-5H27.6v-2.5H19.735a2.57,2.57,0,0,1-2.622-2.5V24.478a2.57,2.57,0,0,1,2.622-2.5h2.622v-2.5H27.6v2.5h5.245ZM27.6,16.986V5.746L39.4,16.986Z" transform="translate(3.992 1.996)"/></svg>